<svg width="960" height="720" xmlns="http://www.w3.org/2000/svg" xmlns:xlink="http://www.w3.org/1999/xlink" overflow="hidden"><defs><linearGradient x1="480" y1="197.141" x2="480" y2="397.141" gradientUnits="userSpaceOnUse" spreadMethod="reflect" id="fill0"><stop offset="0" stop-color="#FFFFFF"/><stop offset="0.56" stop-color="#FFFFFF"/><stop offset="1" stop-color="#7030A0"/></linearGradient><linearGradient x1="480.003" y1="383.501" x2="480.003" y2="498.701" gradientUnits="userSpaceOnUse" spreadMethod="reflect" id="fill1"><stop offset="0" stop-color="#7030A0"/><stop offset="0.5" stop-color="#FFFFFF"/><stop offset="1" stop-color="#FFFFFF"/></linearGradient></defs><g><rect x="0" y="0" width="960" height="720" fill="#FFFFFF" fill-opacity="0"/><path d="M449.849 330.974C449.817 330.974 449.8 331.342 449.8 332.077 449.8 333.649 450.258 335.266 451.174 336.929 451.853 338.151 452.555 338.915 453.28 339.22L453.639 339.295 451.662 333.936C450.818 331.961 450.214 330.974 449.849 330.974ZM543.916 307.327C538.554 307.327 530.719 311.92 520.409 321.107 526.896 320.135 532.55 318.076 537.372 314.93 542.195 311.785 544.606 309.323 544.606 307.544 544.606 307.399 544.376 307.327 543.916 307.327ZM829.695 306.756C826.464 306.756 820.758 311.019 812.576 319.545 804.393 328.072 800.302 334.093 800.302 337.611 800.302 337.644 800.265 337.661 800.191 337.661 802.773 337.661 808.419 333.27 817.13 324.488 825.841 315.707 830.207 310.026 830.229 307.445 830.229 306.986 830.051 306.756 829.695 306.756ZM197.695 306.756C194.465 306.756 188.758 311.019 180.576 319.545 172.394 328.072 168.302 334.093 168.302 337.611 168.302 337.644 168.265 337.661 168.192 337.661 170.773 337.661 176.419 333.27 185.13 324.488 193.841 315.707 198.207 310.026 198.229 307.445 198.229 306.986 198.051 306.756 197.695 306.756ZM603.063 305.859C600.393 305.859 594.282 310.398 584.731 319.478 575.181 328.557 570.405 334.441 570.405 337.13 570.405 337.484 570.529 337.661 570.775 337.661 573.384 337.661 579.531 333.207 589.214 324.301 598.898 315.394 603.745 309.584 603.756 306.869 603.756 306.196 603.525 305.859 603.063 305.859ZM270.637 305.801 270.346 306.021C269.409 306.836 267.696 308.871 265.207 312.129 262.718 315.386 261.162 317.867 260.54 319.573L260.452 319.981 260.915 319.485C262.513 317.757 264.689 315.352 267.443 312.27 269.095 309.384 270.128 307.363 270.541 306.206ZM477.28 304.88 451.984 325.475C453.582 325.499 455.195 327.212 456.822 330.616L458.597 336.254C460.979 333.552 464.366 328.491 468.758 321.072 472.861 314.133 475.702 308.736 477.28 304.88ZM890.9 304.228C887.939 304.228 883.793 306.7 878.462 311.643 872.968 318.429 869.477 323.035 867.99 325.461 871.159 323.228 875.426 320.083 880.792 316.026 887.615 310.953 891.027 307.117 891.027 304.518 891.027 304.325 890.984 304.228 890.9 304.228ZM708.9 304.228C705.939 304.228 701.793 306.7 696.462 311.643 690.968 318.429 687.477 323.035 685.99 325.461 689.159 323.228 693.426 320.083 698.792 316.026 705.615 310.953 709.027 307.117 709.027 304.518 709.027 304.325 708.984 304.228 708.9 304.228ZM320.9 304.228C317.939 304.228 313.793 306.7 308.462 311.643 302.968 318.429 299.477 323.035 297.99 325.461 301.159 323.228 305.426 320.083 310.792 316.026 317.615 310.953 321.027 307.117 321.027 304.518 321.027 304.325 320.985 304.228 320.9 304.228ZM707.312 253.847 706.69 254.084C703.996 255.627 696.63 262.571 684.593 274.917 670.633 292.315 661.928 303.019 658.477 307.031 689.032 280.991 705.264 263.652 707.174 255.015ZM257.235 246.659C260.082 246.659 261.506 248.161 261.506 251.165 261.506 253.19 259.188 256.635 254.552 261.499 246.438 269.934 234.47 283.437 218.646 302.007 199.381 324.616 189.748 337.221 189.748 339.823 189.748 340.011 190.618 340.132 192.358 340.185L192.837 340.275 193.614 340.051C195.419 339.742 197.614 339.04 200.202 337.942 203.3 336.62 210.507 331.444 221.822 322.416 226.88 318.459 234.429 312.067 244.468 303.239 248.165 299.604 251.112 297.786 253.306 297.786 257.486 297.786 259.576 299.848 259.576 303.973 259.576 306.323 255.893 311.828 248.527 320.488 241.161 329.148 237.478 334.861 237.478 337.629 237.478 338.194 237.68 338.476 238.085 338.476 241.244 338.476 247.256 334.314 256.118 325.991 254.455 325.874 253.624 324.457 253.624 321.739 253.624 317.888 256.06 312.947 260.931 306.915 265.803 300.883 270.126 297.868 273.9 297.868 276.908 297.868 278.413 299.397 278.413 302.457 278.413 308.095 272.755 316.738 261.439 328.386 249.987 340.114 241.167 345.978 234.978 345.978 229.415 345.978 226.633 343.009 226.633 337.072 226.633 332.566 229.062 326.981 233.921 320.319L234.392 319.833 232.357 321.655C230.474 323.262 228.422 324.944 226.2 326.701L211.555 338.038C203.595 343.44 197.362 346.141 192.855 346.141L192.226 346.05 191.854 346.182C191.163 346.318 190.356 346.386 189.434 346.386 184.153 346.386 181.512 344.108 181.512 339.551 181.512 336.461 183.259 332.682 186.751 328.213 177.833 339.404 170.91 344.999 165.982 344.999 160.788 344.999 158.191 342.273 158.191 336.821 158.191 334.119 159.365 330.83 161.711 326.954L149.271 338.188C141.45 343.49 135.311 346.141 130.856 346.141 129.129 346.141 128.265 345.271 128.265 343.532 128.265 341.708 129.206 340.556 131.088 340.076 135.088 339.092 139.295 337.559 143.71 335.478 147.437 332.715 153.875 327.344 163.023 319.366 172.172 311.387 179.277 305.905 184.34 302.921 188.119 300.694 191.574 299.58 194.702 299.58 200.517 299.58 203.48 301.539 203.59 305.457 209.706 295.878 217.742 286.206 227.698 276.443 243.847 256.587 253.693 246.659 257.235 246.659ZM574.915 245.68C577.921 245.68 579.425 247.156 579.425 250.109 579.425 252.82 576.93 257.25 571.94 263.398L560.539 274.991 530.725 308.469C537.111 302.815 542.325 299.988 546.364 299.988 551.824 299.988 554.554 302.668 554.554 308.029 554.554 313.565 549.986 318.187 540.85 321.896 533.865 324.739 527.851 326.181 522.809 326.222 524.58 329.192 526.956 333.509 529.935 339.173 530.537 339.904 531.712 340.27 533.46 340.27L533.68 340.302 534.535 340.051C539.284 339.293 545.971 335.54 554.595 328.79L564.914 320.716 581.453 307.542C589.386 302.071 596.211 299.335 601.929 299.335 606.937 299.335 609.605 301.337 609.935 305.339 610.702 303.348 611.708 302.352 612.952 302.352 615.846 302.352 617.293 303.625 617.293 306.17 617.293 308.418 613.202 314.318 605.02 323.871 596.839 333.423 592.748 338.8 592.748 340.001 592.748 340.072 593.618 340.133 595.358 340.186 595.792 340.199 596.173 340.27 596.499 340.399L596.692 340.532 596.704 340.526C597.246 340.322 597.878 340.164 598.601 340.051 600.651 339.758 603.059 338.856 605.823 337.346 609.268 335.517 614.986 331.73 622.979 325.985 629.459 321.098 636.123 315.944 642.971 310.522 650.887 298.663 661.835 285.735 675.817 271.739 691.597 255.943 702.355 248.045 708.09 248.045 711.684 248.045 713.481 249.894 713.481 253.594 713.481 260.758 705.416 271.899 689.288 287.016 679.238 296.383 668.363 305.408 656.663 314.091 654.128 315.988 650.89 320.143 646.949 326.555 642.921 333.011 640.907 337.484 640.907 339.976 640.907 340.101 641.127 340.195 641.567 340.257L643.426 340.346 644.059 340.154C647.543 339.587 651.894 337.88 657.111 335.032 664.316 330.737 669.766 328.161 673.459 327.302 675.791 321.673 680.898 315.517 688.78 308.834 697.248 301.577 704.557 297.949 710.706 297.949 716.11 297.949 718.812 300.304 718.812 305.014 718.812 310.346 714.313 315.537 705.316 320.589 698.119 325.667 691.21 329.328 684.587 331.572 684.137 332.598 683.912 333.941 683.912 335.603 683.912 337.688 684.496 338.99 685.665 339.508 686.485 339.827 688.141 340.035 690.635 340.135 691.377 340.156 692.025 340.234 692.581 340.369L692.673 340.407 693.462 340.144C695.558 339.757 697.627 339.103 699.669 338.182 704.032 336.269 712.157 330.502 724.045 320.882 734.827 312.124 742.39 305.844 746.736 302.04 747.913 300.407 749.437 298.976 751.309 297.747 752.541 297.284 753.72 297.052 754.845 297.052 756.092 297.052 757.383 297.49 758.717 298.366 760.051 299.243 760.718 300.387 760.718 301.799 760.718 303.113 756.453 308.723 747.925 318.629 761.041 306.202 770.753 299.988 777.061 299.988 781.985 299.988 784.447 302.32 784.447 306.984 784.447 310.59 780.152 316.518 771.563 324.767 762.974 333.016 758.679 337.767 758.679 339.019 758.679 339.731 759.644 340.154 761.574 340.288L762.22 340.418 763.088 340.076C767.088 339.092 771.295 337.559 775.709 335.478 779.437 332.715 785.875 327.344 795.023 319.366 804.172 311.387 811.277 305.905 816.339 302.921 820.119 300.694 823.574 299.58 826.702 299.58 832.517 299.58 835.48 301.539 835.59 305.457 841.706 295.878 849.742 286.206 859.697 276.443 875.847 256.587 885.693 246.659 889.235 246.659 892.082 246.659 893.506 248.161 893.506 251.165 893.506 253.19 891.188 256.635 886.552 261.499 878.438 269.934 866.47 283.437 850.646 302.007 831.381 324.616 821.748 337.221 821.748 339.823 821.748 340.011 822.618 340.132 824.357 340.185L825.346 340.37 826.059 340.154C829.543 339.587 833.894 337.88 839.111 335.032 846.316 330.737 851.766 328.161 855.459 327.302 857.791 321.673 862.898 315.517 870.78 308.834 879.248 301.577 886.557 297.949 892.706 297.949 898.11 297.949 900.812 300.304 900.812 305.014 900.812 310.346 896.313 315.537 887.316 320.589 880.119 325.667 873.21 329.328 866.587 331.572 866.137 332.598 865.912 333.941 865.912 335.603 865.912 337.688 866.496 338.99 867.665 339.508 868.485 339.827 870.141 340.035 872.635 340.135 873.377 340.156 874.025 340.234 874.581 340.369L874.661 340.403 875.749 340.076C877.334 339.788 879.325 339.091 881.725 337.984 886.273 335.969 892.611 332.368 900.741 327.18 908.651 319.022 914.543 312.858 918.418 308.687 918.146 307.457 918.01 306.572 918.01 306.035 918.01 304.115 919.906 301.472 923.696 298.106 927.487 294.74 930.224 293.057 931.91 293.057 934.277 293.057 935.461 294.157 935.461 296.358 935.461 297.575 934.793 298.622 933.459 299.498 939.468 299.498 942.473 302.436 942.473 308.31 942.473 312.491 938.6 318.717 930.853 326.989 924.075 334.226 920.262 338.529 919.415 339.898L919.242 340.286 922.336 340.19C923.692 340.19 924.371 341.168 924.371 343.124 924.371 345.298 922.259 346.386 918.036 346.386 913.018 346.386 910.508 344.086 910.508 339.486 910.508 335.672 912.471 331.906 916.395 328.186 919.089 323.137 922.874 318.194 927.75 313.356 929.559 311.564 930.916 310.232 931.82 309.359L932.535 308.681 932.013 308.754C931.357 308.891 930.531 309.095 929.534 309.368 927.54 309.913 926.411 310.301 926.147 310.531 901.074 334.271 883.977 346.141 874.856 346.141 874.424 346.141 874.047 346.085 873.723 345.973L873.715 345.968 870.59 346.564C869.147 346.717 867.464 346.793 865.54 346.793 857.525 346.793 853.517 343.233 853.517 336.111 853.517 334.56 853.704 333.582 854.077 333.176 852.944 333.752 849.043 335.64 842.374 338.84 835.04 343.707 829.534 346.141 825.856 346.141 825.424 346.141 825.047 346.085 824.723 345.973L824.622 345.91 823.854 346.182C823.163 346.318 822.356 346.386 821.433 346.386 816.153 346.386 813.512 344.108 813.512 339.551 813.512 336.461 815.259 332.682 818.751 328.213 809.833 339.404 802.91 344.999 797.982 344.999 792.788 344.999 790.191 342.273 790.191 336.821 790.191 334.119 791.364 330.83 793.711 326.954L781.271 338.188C773.45 343.49 767.311 346.141 762.856 346.141 762.424 346.141 762.046 346.087 761.722 345.978L761.526 345.859 760.267 346.185C759.333 346.319 758.244 346.386 756.999 346.386 751.487 346.386 748.731 343.864 748.731 338.82 748.731 335.092 751.978 330.351 758.47 324.597 758.75 322.282 761.741 318.399 767.445 312.945 769.416 311.067 770.894 309.611 771.879 308.576L772.908 307.43 772.396 307.512C769.308 308.376 763.431 312.264 754.767 319.176 746.407 325.815 740.18 331.293 736.087 335.609 730.557 341.434 726.976 344.347 725.342 344.347 723.953 344.347 722.775 343.77 721.807 342.616 720.838 341.462 720.354 340.217 720.354 338.88 720.354 337.259 724.159 331.956 731.77 322.971L744.581 310.063 727.144 326.069 711.461 338.101C703.585 343.461 697.41 346.141 692.935 346.141 692.49 346.141 692.101 346.087 691.767 345.98L691.739 345.963 688.59 346.564C687.147 346.717 685.464 346.793 683.54 346.793 675.525 346.793 671.517 343.233 671.517 336.111 671.517 334.56 671.704 333.582 672.077 333.176 670.944 333.752 667.043 335.64 660.374 338.84 653.04 343.707 647.534 346.141 643.856 346.141L643.352 346.066 642.977 346.187C642.241 346.32 641.382 346.386 640.4 346.386 634.922 346.386 632.182 343.603 632.182 338.036 632.182 333.398 634.261 327.49 638.419 320.314L621.48 334.752C610.392 342.345 602.184 346.141 596.855 346.141 596.423 346.141 596.046 346.088 595.722 345.981L595.394 345.787 593.954 346.182C593.062 346.318 592.022 346.386 590.833 346.386 586.184 346.386 583.86 344.268 583.86 340.032 583.86 337.207 585.311 334.175 588.212 330.936L580.848 339.085C575.78 342.865 571.603 344.755 568.317 344.755 562.642 344.755 559.805 341.891 559.805 336.163 559.805 333.385 560.419 331.102 561.646 329.315 548.918 340.532 539.655 346.141 533.855 346.141L533.057 346.023 531.823 346.338C530.831 346.478 529.673 346.549 528.35 346.549 525.96 346.549 523.958 345.959 522.345 344.779 520.698 343.657 517.919 338.466 514.007 329.206L507.831 338.056C502.922 343.772 499.773 346.63 498.385 346.63 495.005 346.63 493.316 344.76 493.316 341.02 493.316 339.08 497.589 332.931 506.136 322.573L519.465 309.171 500.581 326.952 486.147 338.4C478.804 343.561 472.707 346.141 467.855 346.141L467.02 346.017 466.593 346.182C465.957 346.318 465.216 346.386 464.369 346.386 463.666 346.386 462.74 346.277 461.59 346.059 460.441 345.842 459.628 345.733 459.151 345.733 458.85 345.733 458.272 345.815 457.419 345.978 456.566 346.141 455.863 346.223 455.311 346.223 447.451 346.223 443.522 341.65 443.522 332.505 433.932 341.596 426.043 346.141 419.856 346.141L419.222 346.05 419.07 346.105C418.418 346.238 417.657 346.304 416.787 346.304 410.97 346.304 408.062 343.842 408.062 338.917 408.062 335.587 409.608 331.128 412.7 325.539L419.658 315.844 398.676 334.139C388.538 342.14 380.598 346.141 374.855 346.141 374.423 346.141 374.046 346.085 373.722 345.973L373.536 345.857 372.267 346.185C371.333 346.319 370.244 346.386 368.999 346.386 363.487 346.386 360.731 343.864 360.731 338.82 360.731 335.092 363.977 330.351 370.47 324.597 370.75 322.282 373.741 318.399 379.445 312.945 381.416 311.067 382.894 309.611 383.879 308.576L384.908 307.43 384.396 307.512C381.308 308.376 375.431 312.264 366.767 319.176 358.407 325.815 352.18 331.293 348.087 335.609 342.557 341.434 338.976 344.347 337.342 344.347 335.954 344.347 334.775 343.77 333.807 342.616 332.838 341.462 332.354 340.217 332.354 338.88 332.354 337.259 336.159 331.956 343.77 322.971L356.581 310.063 339.144 326.069 323.461 338.101C315.585 343.461 309.41 346.141 304.935 346.141 304.49 346.141 304.101 346.087 303.767 345.98L303.739 345.963 300.59 346.564C299.147 346.717 297.464 346.793 295.54 346.793 287.525 346.793 283.517 343.233 283.517 336.111 283.517 334.56 283.704 333.582 284.077 333.176 282.944 333.752 279.043 335.64 272.374 338.84 265.04 343.707 259.534 346.141 255.856 346.141 254.129 346.141 253.265 345.244 253.265 343.45 253.265 341.545 254.196 340.446 256.059 340.154 259.543 339.587 263.894 337.88 269.111 335.032 276.316 330.737 281.766 328.161 285.459 327.302 287.791 321.673 292.898 315.517 300.78 308.834 309.248 301.577 316.557 297.949 322.706 297.949 328.11 297.949 330.812 300.304 330.812 305.014 330.812 310.346 326.313 315.537 317.316 320.589 310.119 325.667 303.21 329.328 296.587 331.572 296.137 332.598 295.912 333.941 295.912 335.603 295.912 337.688 296.496 338.99 297.665 339.508 298.485 339.827 300.141 340.035 302.635 340.135 303.377 340.156 304.025 340.234 304.581 340.369L304.673 340.407 305.462 340.144C307.558 339.757 309.627 339.103 311.669 338.182 316.032 336.269 324.157 330.502 336.045 320.882 346.827 312.124 354.39 305.844 358.736 302.04 359.913 300.407 361.437 298.976 363.309 297.747 364.541 297.284 365.72 297.052 366.846 297.052 368.092 297.052 369.383 297.49 370.717 298.366 372.051 299.243 372.718 300.387 372.718 301.799 372.718 303.113 368.453 308.723 359.925 318.629 373.041 306.202 382.753 299.988 389.061 299.988 393.985 299.988 396.447 302.32 396.447 306.984 396.447 310.59 392.152 316.518 383.563 324.767 374.974 333.016 370.679 337.767 370.679 339.019 370.679 339.731 371.644 340.154 373.574 340.288L374.161 340.406 374.779 340.155C376.69 339.763 379.491 338.819 383.183 337.324 386.488 335.599 394.27 329.944 406.528 320.359 415.56 313.349 421.254 308.775 423.611 306.636 427.784 302.841 432.303 298.625 437.17 293.989L410.116 295.095C407.388 295.095 406.024 294.128 406.024 292.195 406.024 290.571 407.628 289.531 410.836 289.076 414.743 288.456 420.052 287.932 426.761 287.505 434.165 287.081 439.173 286.706 441.785 286.381L452.485 273.555C459.173 265.627 463.407 261.662 465.189 261.662 467.93 261.662 469.301 263.222 469.301 266.34 469.301 268.897 464.45 275.542 454.747 286.274 459.362 285.903 463.424 285.718 466.931 285.718 470.522 285.718 472.318 286.74 472.318 288.783 472.318 290.867 468.851 292.127 461.917 292.563L450.458 292.935 433.265 314.404C422.171 328.836 416.624 337.283 416.624 339.745 416.624 340.021 417.521 340.172 419.315 340.199L419.638 340.253 420.088 340.076C422.038 339.603 424.964 338.583 428.864 337.017 432.604 334.998 442.269 327.512 457.858 314.558 473.049 301.963 481.025 295.666 481.788 295.666 483.438 295.666 485.042 296.357 486.602 297.74 488.161 299.122 488.941 300.65 488.941 302.323 488.941 306.497 485.812 313.621 479.555 323.696 474.241 332.207 469.717 337.705 465.983 340.188L467.308 340.349 467.798 340.15C474.773 338.513 484.167 332.768 495.981 322.913L518.768 303.902C524.003 299.516 532.234 291.304 543.461 279.264L566.151 252.644C570.03 248.001 572.952 245.68 574.915 245.68ZM179.115 236.784 178.276 237.212C172.543 240.311 158.131 250.124 135.041 266.651L91.1124 297.541 130.429 296.847 167.421 251.91 174.229 243.607C175.731 241.696 176.966 240.03 177.935 238.612ZM187.351 225.865C191.37 225.865 193.38 228.275 193.38 233.094 193.38 236.605 189.49 243.192 181.709 252.856L144.387 296.807 149.938 296.807C154.701 297.307 157.083 298.946 157.083 301.726 157.083 303.988 155.174 305.119 151.355 305.119L146.178 304.799 139.62 304.868 124.112 324.53C112.536 338.937 105.882 346.141 104.15 346.141 102.48 346.141 101.082 345.149 99.9573 343.165 98.9618 341.552 98.464 340.027 98.464 338.592 98.464 336.547 107.536 325.308 125.679 304.876L121.072 304.876C112.435 304.928 99.7352 305.411 82.9721 306.324L56.3114 329.058 45.8191 338.438C39.9064 343.573 36.1176 346.141 34.4528 346.141 31.8978 346.141 30.6203 344.824 30.6203 342.191 30.6203 339.763 38.5172 331.981 54.3111 318.844L72.0339 306.511C54.9972 307.345 44.2572 308.017 39.8141 308.527L39.5448 308.579 40.3178 308.57C42.2165 308.556 45.0644 308.55 48.8617 308.55L57.7652 308.417C60.4348 308.345 61.7697 309.197 61.7697 310.974 61.7697 313.544 55.3906 314.828 42.6326 314.828 31.6345 314.828 26.1354 313.025 26.1354 309.419 26.1354 305.323 29.3538 302.628 35.7906 301.333 37.7408 300.891 42.0601 300.451 48.7483 300.013L79.4046 298.009C91.8467 287.721 109.51 275.294 132.394 260.729 162.936 237.486 181.255 225.865 187.351 225.865Z" fill="url(#fill0)" fill-rule="evenodd"/><text fill="#000000" fill-opacity="0" font-family="Arial,Arial_MSFontService,sans-serif" font-size="120.928" x="26.1354" y="331.677">Adventskalender</text><path d="M368.769 464.451C357.238 479.976 351.472 489.443 351.472 492.852 351.472 493.576 351.742 493.938 352.281 493.938 354.797 493.938 358.746 490.386 364.13 483.283 368.614 477.36 371.864 472.684 373.881 469.255 370.473 469.201 368.769 467.599 368.769 464.451ZM480.431 459.157C474.5 459.157 471.535 460.803 471.535 464.096 471.535 466.772 473.627 468.11 477.811 468.11 482.524 468.11 487.512 465.768 492.775 461.086 488.836 459.8 484.722 459.157 480.431 459.157ZM375.733 458.219C375.102 458.219 374.384 458.899 373.579 460.26 372.778 461.641 372.378 462.819 372.378 463.795 372.378 465.203 373.129 465.907 374.631 465.907L374.823 465.907C375.943 463.529 376.503 461.377 376.503 459.453 376.503 458.63 376.246 458.219 375.733 458.219ZM596.98 445.985C595.445 445.985 591.932 448.594 586.442 453.814 580.952 459.033 578.206 462.415 578.206 463.961 578.206 464.164 578.277 464.266 578.419 464.266 579.919 464.266 583.452 461.706 589.019 456.586 594.585 451.466 597.372 448.126 597.378 446.566 597.378 446.178 597.245 445.985 596.98 445.985ZM566.586 445.047C564.884 445.047 562.501 446.468 559.436 449.31 556.278 453.211 554.272 455.859 553.417 457.253 555.238 455.969 557.692 454.161 560.776 451.829 564.698 448.913 566.66 446.708 566.66 445.214 566.66 445.103 566.635 445.047 566.586 445.047ZM429.578 429.344C431.58 429.344 432.581 430.319 432.581 432.27 432.581 433.566 431.963 434.855 430.725 436.138 429.488 437.421 428.202 438.063 426.869 438.063 424.99 438.063 424.05 437.118 424.05 435.229 424.05 433.915 424.635 432.605 425.803 431.301 426.972 429.996 428.23 429.344 429.578 429.344ZM421.234 429.344C423.236 429.344 424.238 430.33 424.238 432.302 424.238 433.521 423.601 434.786 422.327 436.097 421.053 437.407 419.786 438.063 418.526 438.063 416.646 438.063 415.706 437.107 415.706 435.196 415.706 433.845 416.29 432.532 417.456 431.257 418.622 429.982 419.881 429.344 421.234 429.344ZM555.16 416.979C550.231 419.822 545.429 424.043 540.752 429.641 536.076 435.239 533.738 439.243 533.738 441.653 533.738 441.978 533.839 442.141 534.042 442.141 535.786 442.141 539.129 439.419 544.073 433.975 549.017 428.531 552.712 422.865 555.16 416.979ZM410.521 410.547C412.311 410.547 413.206 411.427 413.206 413.185 413.206 414.131 412.86 415.133 412.166 416.191L404.35 424.982 395.36 434.927 376.989 454.891C379.165 454.861 380.253 456.461 380.253 459.691 380.253 460.928 380.033 462.32 379.592 463.868L379.007 465.595 382.036 464.867C384.12 463.705 387.99 460.902 393.644 456.456 396.316 454.374 400.149 451.195 405.143 446.919 406.022 446.007 407.442 444.761 409.402 443.18 410.386 442.55 411.287 442.235 412.104 442.235 414.537 442.235 415.753 443.128 415.753 444.915 415.753 446.336 413.605 449.416 409.308 454.157 406.085 457.713 404.071 460.439 403.266 462.335L402.914 463.748 403.404 463.633C405.295 462.868 409.016 459.422 414.565 453.297 420.907 446.297 424.644 442.797 425.775 442.797 426.485 442.797 427.141 443.12 427.742 443.766 428.343 444.412 428.644 445.075 428.644 445.756 428.644 446.711 426.285 449.922 421.566 455.389 416.847 460.855 414.488 464.244 414.488 465.555 414.488 465.663 415.003 465.733 416.035 465.763L416.343 465.819 416.71 465.655C417.62 465.489 418.765 465.088 420.145 464.452 422.759 463.294 426.403 461.224 431.076 458.241 435.623 453.552 439.01 450.008 441.238 447.611 441.081 446.903 441.003 446.395 441.003 446.086 441.003 444.982 442.093 443.463 444.272 441.528 446.451 439.593 448.025 438.625 448.993 438.625 450.354 438.625 451.035 439.258 451.035 440.523 451.035 441.223 450.651 441.825 449.884 442.328 453.339 442.328 455.066 444.017 455.066 447.394 455.066 449.797 452.839 453.376 448.386 458.131 444.49 462.292 442.298 464.766 441.811 465.552L441.711 465.775 443.49 465.72C444.27 465.72 444.66 466.282 444.66 467.407 444.66 468.657 443.446 469.282 441.018 469.282 438.133 469.282 436.691 467.96 436.691 465.316 436.691 463.123 437.819 460.958 440.075 458.82 441.623 455.917 443.799 453.076 446.602 450.294 447.642 449.265 448.422 448.499 448.942 447.997L449.353 447.607 449.053 447.649C448.676 447.728 448.201 447.845 447.628 448.002 446.481 448.315 445.832 448.538 445.681 448.671 431.267 462.318 421.439 469.141 416.196 469.141L415.835 469.087 415.729 469.122C415.318 469.197 414.837 469.235 414.288 469.235 411.078 469.235 409.472 467.941 409.472 465.353 409.472 463.789 410.114 462.17 411.399 460.495 406.958 465.696 403.345 468.297 400.559 468.297 398.032 468.297 396.769 466.929 396.769 464.193 396.769 461.503 397.911 458.56 400.194 455.363L406.013 449.801 394.559 460.375C386.873 466.219 381.419 469.141 378.195 469.141L377.572 469.049 376.121 471.882C374.468 474.903 372.319 478.273 369.674 481.993 362.318 492.3 356.333 497.453 351.719 497.453 350.116 497.453 348.854 496.864 347.933 495.685 347.011 494.506 346.55 493.144 346.55 491.598 346.55 489.966 347.08 487.913 348.141 485.44 349.769 481.683 354.113 475.297 361.171 466.281L375.975 448.779 361.979 461.352C355.617 466.545 350.689 469.141 347.196 469.141 346.203 469.141 345.706 468.625 345.706 467.594 345.706 466.601 346.281 465.97 347.431 465.699 348.698 465.44 350.032 464.982 351.433 464.327 353.76 463.326 358.264 460.096 364.944 454.637 370.478 450.154 375.001 446.279 378.512 443.013 383.302 438.565 392.388 428.816 405.77 413.766 407.678 411.62 409.262 410.547 410.521 410.547ZM553.131 406.75C557.538 406.75 559.926 408.385 560.296 411.655 561.243 411.073 561.987 410.782 562.527 410.782 563.584 410.782 564.113 411.351 564.113 412.49 564.113 413.313 563.458 414.022 562.148 414.618L560.594 415.222C560.268 420.794 556.821 427.463 550.253 435.228 543.685 442.993 538.467 446.875 534.6 446.875 531.432 446.875 529.847 445.398 529.847 442.442 529.847 438.88 532.302 434.05 537.211 427.955 542.12 421.859 548.246 416.894 555.589 413.061 555.615 412.835 555.628 412.65 555.628 412.504 555.628 411.356 555.129 410.782 554.13 410.782 551.464 410.782 546.894 413.856 540.419 420.005 537.962 422.335 533.771 426.717 527.844 433.152L513.135 448.676 503.324 458.761C513.383 462.494 520.324 464.36 524.147 464.36 524.53 464.36 525.114 464.274 525.898 464.102 526.682 463.93 527.282 463.844 527.697 463.844 528.63 463.844 529.097 464.294 529.097 465.194L528.746 465.981 529.313 465.699C531.316 465.374 533.817 464.392 536.816 462.755 540.958 460.286 544.09 458.805 546.213 458.311 547.554 455.076 550.489 451.537 555.021 447.695 559.888 443.524 564.09 441.438 567.625 441.438 570.731 441.438 572.285 442.792 572.285 445.499 572.285 448.564 569.698 451.548 564.526 454.452 560.389 457.372 556.417 459.476 552.61 460.766 552.351 461.356 552.222 462.128 552.222 463.083 552.222 464.282 552.558 465.03 553.23 465.328 553.701 465.511 554.653 465.631 556.087 465.688L557.192 465.822 557.587 465.64C560.317 465.204 564.16 463.047 569.118 459.167L575.05 454.526 584.557 446.952C589.117 443.807 593.041 442.235 596.328 442.235 599.206 442.235 600.74 443.385 600.93 445.686 601.371 444.541 601.949 443.969 602.664 443.969 604.328 443.969 605.16 444.701 605.16 446.163 605.16 447.456 602.808 450.848 598.105 456.339 593.402 461.83 591.05 464.921 591.05 465.611 591.05 465.652 591.55 465.687 592.55 465.718 593.55 465.748 594.05 466.311 594.05 467.407 594.05 468.657 592.683 469.282 589.949 469.282 587.277 469.282 585.941 468.064 585.941 465.629 585.941 464.005 586.775 462.263 588.443 460.4L584.209 465.085C581.296 467.258 578.895 468.344 577.006 468.344 573.744 468.344 572.113 466.698 572.113 463.405 572.113 461.808 572.465 460.496 573.171 459.469 565.855 465.917 560.529 469.141 557.195 469.141L556.628 469.057 554.911 469.384C554.082 469.472 553.114 469.516 552.008 469.516 547.401 469.516 545.097 467.469 545.097 463.375 545.097 462.484 545.204 461.921 545.419 461.688 544.768 462.019 542.525 463.104 538.691 464.944 534.475 467.742 531.31 469.141 529.196 469.141 528.203 469.141 527.706 468.625 527.706 467.594L527.765 467.404 525.675 468.683C524.016 469.363 522.513 469.703 521.166 469.703 516.983 469.703 509.666 467.603 499.216 463.403 492.845 469.353 486.156 472.328 479.149 472.328 476.26 472.328 473.651 471.617 471.321 470.193 468.964 469.138 467.785 467.161 467.785 464.262 467.785 460.821 469.639 458.2 473.348 456.398 476.954 454.299 480.516 453.25 484.033 453.25 488.266 453.25 492.648 454.234 497.176 456.201L520.561 431.094C527.248 423.907 532.075 419.011 535.041 416.407 542.387 409.969 548.417 406.75 553.131 406.75Z" fill="url(#fill1)" fill-rule="evenodd"/><text fill="#000000" fill-opacity="0" font-family="Arial,Arial_MSFontService,sans-serif" font-size="90.7031" x="345.706" y="486.116">für Lea</text><g><g><g><path d="M608.599 434.429C608.599 434.429 623.229 423.239 623.229 414.201 623.229 410.53 619.811 406.698 615.914 406.698 613.414 406.698 610.718 408.273 608.599 412.479 606.48 408.274 603.784 406.698 601.284 406.698 597.387 406.698 593.969 410.529 593.969 414.201 593.969 423.239 608.599 434.429 608.599 434.429ZM596.967 409.832C598.07 408.596 599.629 407.864 601.284 407.802 603.719 407.802 605.908 409.591 607.613 412.976L608.599 414.932 609.585 412.976C611.29 409.591 613.479 407.802 615.914 407.802 619.048 407.802 622.125 410.971 622.125 414.201 622.125 421.522 611.415 430.725 608.599 433.017 605.783 430.725 595.073 421.528 595.073 414.201 595.14 412.56 595.815 411.003 596.967 409.832Z" stroke="#CFB9DF" stroke-width="2" fill="#767171"/><path d="M631.998 392.145C630.278 392.145 628.423 393.229 626.965 396.12 625.514 393.24 623.667 392.153 621.953 392.145L621.933 392.145C619.251 392.145 616.9 394.781 616.9 397.307 616.9 403.526 626.965 411.224 626.965 411.224 626.965 411.224 637.031 403.526 637.031 397.307 637.031 394.781 634.679 392.145 631.998 392.145ZM626.965 409.815C623.952 407.353 618.004 401.605 618.004 397.307 618.049 396.266 618.48 395.279 619.212 394.538 619.906 393.757 620.888 393.291 621.932 393.25L621.948 393.25C623.479 393.258 624.874 394.422 625.979 396.617L626.965 398.574 627.951 396.617C629.061 394.413 630.461 393.25 631.997 393.25 634.113 393.25 635.927 395.481 635.927 397.307 635.927 401.605 629.978 407.353 626.965 409.815Z" stroke="#CFB9DF" stroke-width="2" fill="#767171"/></g></g></g></g></svg>